<?xml version="1.0" encoding="utf-8"?>
<!-- Generator: Adobe Illustrator 23.0.3, SVG Export Plug-In . SVG Version: 6.00 Build 0)  -->
<svg version="1.1" id="Layer_1" xmlns="http://www.w3.org/2000/svg" xmlns:xlink="http://www.w3.org/1999/xlink" x="0px" y="0px"
	 viewBox="0 0 72.09 76.41" style="enable-background:new 0 0 72.09 76.41;" xml:space="preserve">
<path d="M62,20.41c-2.36-2.41-5.26-3.68-8.4-3.68c-7.39,0-13.82,10.95-15.81,14.72c-1.01-0.35-2.04-0.53-3.09-0.53
	c-0.13,0-0.26,0.01-0.39,0.01c-0.01-0.03-0.05-0.21-0.05-0.21c-0.74-3.32-0.47-6.61-0.11-8.79c0.22-1.31,0.57-3,1.4-4.36
	c0.13-0.21,0.27-0.42,0.46-0.7c0.84-1.24,2.12-3.12,1.14-5.18C36.21,9.72,33.9,9.21,32.23,9c-0.82-0.11-1.69-0.16-2.58-0.16
	c-4.86,0-10.19,1.59-14.26,4.24c-5.68,3.71-9.7,9.01-10.73,14.18c-0.66,3.31-0.09,6.42,1.67,9.02c3.33,4.9,10.64,5.63,14.71,5.63
	c2,0,3.45-0.16,3.82-0.21h0.45c0.13,0.92,0.39,1.82,0.79,2.69c-2.17,1.82-4.55,3.02-6.18,3.71c-1.23,0.52-2.84,1.12-4.43,1.15
	l-0.14,0c-0.21,0-0.43-0.01-0.69-0.01c-0.26-0.01-0.54-0.02-0.83-0.02c-1.4,0-3.14,0.21-4.16,1.82c-1.17,1.85-0.36,4.08,0.34,5.6
	c2.28,4.91,7.17,9.64,12.45,12.06c3.72,1.7,7.62,2.6,11.29,2.6h0c2.36,0,4.52-0.37,6.43-1.1c3.15-1.21,5.48-3.36,6.73-6.23
	c2.92-6.69-2.66-15.05-4.69-17.76c0.55-0.72,1-1.51,1.33-2.36c2.61,1.15,4.72,2.49,6.28,3.97c0.97,0.92,2.16,2.16,2.82,3.6
	c0.11,0.24,0.21,0.5,0.32,0.77c0.56,1.4,1.4,3.51,3.64,3.85c0.19,0.03,0.38,0.04,0.57,0.04c1.91,0,3.45-1.48,4.43-2.59
	c3.59-4.05,5.98-10.42,6.09-16.22C67.82,30.47,65.7,24.17,62,20.41z M58.41,47.89c-0.46-0.03-0.88-0.3-1.08-0.72
	c-2.56-5.24-9.33-7.41-9.4-7.43c-0.68-0.21-1.06-0.94-0.85-1.62c0.18-0.57,0.71-0.94,1.31-0.9c0.1,0.01,0.21,0.03,0.31,0.06
	c0.32,0.1,7.9,2.53,10.95,8.76c0.31,0.64,0.05,1.41-0.59,1.72C58.85,47.86,58.63,47.91,58.41,47.89z M34.71,33.49
	c3.81,0,6.91,3.1,6.91,6.91c0,3.81-3.1,6.91-6.91,6.91s-6.91-3.1-6.91-6.91C27.8,36.6,30.9,33.49,34.71,33.49z M29.8,52.45
	c-0.22,0.21-5.51,5.2-12,5.36c-0.32,0.01-0.64,0.01-0.96-0.01c-0.71-0.03-1.26-0.64-1.22-1.35c0.03-0.68,0.57-1.21,1.25-1.23l0.1,0
	c0.26,0.01,0.51,0.02,0.76,0.01c5.39-0.14,10.09-4.46,10.28-4.65c0.23-0.22,0.54-0.35,0.86-0.36c0.36-0.01,0.71,0.14,0.96,0.4
	C30.33,51.14,30.31,51.96,29.8,52.45z M27.31,16.19c0.24-0.39,0.65-0.62,1.1-0.62c0.23,0,0.47,0.07,0.67,0.19
	c0.29,0.18,0.5,0.46,0.58,0.8c0.08,0.33,0.03,0.68-0.15,0.98c-3.04,4.99-1.22,11.85-1.2,11.92c0.09,0.33,0.05,0.68-0.12,0.98
	s-0.45,0.51-0.78,0.6c-0.11,0.03-0.22,0.05-0.34,0.05c-0.58,0-1.09-0.39-1.24-0.95C25.74,29.81,23.7,22.12,27.31,16.19z"/>
</svg>
