<?xml version="1.0" encoding="utf-8"?>
<!-- Generator: Adobe Illustrator 23.0.3, SVG Export Plug-In . SVG Version: 6.00 Build 0)  -->
<svg version="1.1" id="Layer_1" xmlns="http://www.w3.org/2000/svg" xmlns:xlink="http://www.w3.org/1999/xlink" x="0px" y="0px"
	 viewBox="0 0 72.09 67.77" style="enable-background:new 0 0 72.09 67.77;" xml:space="preserve">
<g>
	<path d="M60.56,29.31L36.63,12.13c-0.34-0.24-0.8-0.25-1.14-0.02L11.56,28.18c-0.28,0.19-0.44,0.5-0.44,0.83v31.79
		c0,0.55,0.45,1,1,1h47.85c0.55,0,1-0.45,1-1V30.12C60.97,29.8,60.82,29.49,60.56,29.31z M15.75,50.69
		C23.28,45.08,29.3,44.3,36.5,48c7.81,4,13.58,3.96,18.16-0.13c0.55-0.49,1.39-0.44,1.89,0.11c0.49,0.55,0.44,1.39-0.11,1.89
		c-2.82,2.52-6.03,3.78-9.7,3.78c-3.41,0-7.21-1.09-11.45-3.26c-6.24-3.2-11.27-2.51-17.94,2.46c-0.59,0.44-1.43,0.32-1.87-0.27
		C15.03,51.97,15.15,51.13,15.75,50.69z M15.75,44.08c7.54-5.61,13.55-6.39,20.76-2.7c7.81,4,13.58,3.96,18.16-0.13
		c0.55-0.49,1.39-0.44,1.89,0.11c0.49,0.55,0.44,1.39-0.11,1.89c-2.82,2.52-6.03,3.78-9.7,3.78c-3.41,0-7.21-1.09-11.45-3.26
		c-6.24-3.2-11.27-2.51-17.94,2.46c-0.59,0.44-1.43,0.32-1.87-0.27C15.03,45.36,15.15,44.52,15.75,44.08z M56.44,35.43
		c-2.82,2.52-6.03,3.78-9.7,3.78c-3.41,0-7.21-1.09-11.45-3.26c-6.24-3.2-11.27-2.51-17.94,2.46c-0.59,0.44-1.43,0.32-1.87-0.27
		c-0.44-0.59-0.32-1.43,0.27-1.87c7.54-5.61,13.55-6.39,20.76-2.7c7.81,4,13.58,3.96,18.16-0.13c0.55-0.49,1.39-0.44,1.89,0.11
		C57.04,34.1,56.99,34.94,56.44,35.43z"/>
	<path d="M66.76,26.31L37.08,5c-0.3-0.22-0.66-0.33-1.03-0.33c-0.35,0-0.69,0.1-0.99,0.3L5.38,24.89c-0.39,0.26-0.66,0.66-0.75,1.13
		c-0.09,0.46,0,0.93,0.27,1.33c0.33,0.49,0.88,0.78,1.47,0.78c0.35,0,0.69-0.1,0.98-0.3L36.01,8.59L64.7,29.18
		c0.3,0.22,0.66,0.33,1.03,0.33c0.57,0,1.11-0.28,1.44-0.74C67.73,27.98,67.55,26.87,66.76,26.31z"/>
</g>
</svg>
