<?xml version="1.0" encoding="utf-8"?>
<!-- Generator: Adobe Illustrator 23.0.3, SVG Export Plug-In . SVG Version: 6.00 Build 0)  -->
<svg version="1.1" id="Layer_1" xmlns="http://www.w3.org/2000/svg" xmlns:xlink="http://www.w3.org/1999/xlink" x="0px" y="0px"
	 viewBox="0 0 144 144" style="enable-background:new 0 0 144 144;" xml:space="preserve">
<g>
	<g>
		<path d="M23.64,41.57l11.36,8.42L50.8,65.79l7.94-6.75l-16.4-16.4l-8.42-11.36l-12.03-6.72c-0.76-0.42-1.7-0.29-2.31,0.32
			l-2.34,2.34c-0.61,0.61-0.74,1.56-0.32,2.31L23.64,41.57z"/>
		<path d="M89.98,78.44L72.13,99.67l22.17,26.05c5.01,5.54,13.63,5.75,18.91,0.47l2.67-2.67l2.61-2.61
			c5.3-5.3,5.06-13.97-0.53-18.96L89.98,78.44z"/>
	</g>
	<path d="M127.79,37.13c-0.57,0-1.14,0.21-1.61,0.67l-6.12,6.08c-2.14,2.12-4.93,3.19-7.73,3.19c-2.77,0-5.54-1.04-7.67-3.13
		l-2.14-2.1l0.09-0.09l-2.41-2.46c-4.27-4.36-4.16-11.36,0.24-15.58l6.02-5.77c1.51-1.44,0.47-3.95-1.62-3.96c-0.03,0-0.07,0-0.1,0
		c-4.59,0-11.47,1.16-17.66,6.84c-10.48,9.62-4.99,26.74-4.99,26.74L63.28,63.58l-7.94,6.75l-37.13,31.6
		c-5.54,5.01-5.75,13.63-0.47,18.91l2.67,2.67l2.61,2.61c2.56,2.56,5.9,3.82,9.23,3.82c3.58,0,7.15-1.46,9.73-4.35l25.95-30.87
		l17.15-20.41l10.8-12.85c0,0,4.89,1.69,10.95,1.69c5.26,0,11.4-1.27,15.99-6.04c5.92-6.15,7.19-13.11,7.27-17.7
		C130.11,38.04,128.97,37.13,127.79,37.13z M31.77,117.19c-3.18,0-5.76-2.58-5.76-5.76c0-3.18,2.58-5.76,5.76-5.76
		c3.18,0,5.76,2.58,5.76,5.76C37.53,114.61,34.95,117.19,31.77,117.19z"/>
</g>
</svg>
