<?xml version="1.0" encoding="utf-8"?>
<!-- Generator: Adobe Illustrator 23.0.3, SVG Export Plug-In . SVG Version: 6.00 Build 0)  -->
<svg version="1.1" id="Layer_1" xmlns="http://www.w3.org/2000/svg" xmlns:xlink="http://www.w3.org/1999/xlink" x="0px" y="0px"
	 viewBox="0 0 144 144" style="enable-background:new 0 0 144 144;" xml:space="preserve">
<g>
	<path d="M124.9,15.98H19.1c-1.38,0-2.51,1.12-2.51,2.51v16.35c0,1.38,1.12,2.51,2.51,2.51h54.95v5.27c0,0.96,0.55,1.83,1.41,2.25
		l4.31,2.1v9.43c-2.04,0.68-3.74,1.64-4.88,2.52c-1.1,0.85-1.3,2.42-0.45,3.51c0.85,1.1,2.42,1.3,3.51,0.45
		c0.28-0.22,6.99-5.28,13.59-0.02c3.18,2.53,6.5,3.43,9.56,3.43c4.36,0,8.17-1.84,10.21-3.41c1.1-0.85,1.3-2.42,0.45-3.51
		c-0.85-1.1-2.42-1.3-3.51-0.45c-0.08,0.07-0.75,0.57-1.82,1.1V46.97l4.31-2.1c0.86-0.42,1.41-1.29,1.41-2.25v-5.27h5.16
		c5.58,0,10.11-4.54,10.11-10.11v-8.75C127.41,17.1,126.28,15.98,124.9,15.98z"/>
	<path d="M118.87,98.23l-12.46-7.35v-12.5c2.04-0.68,3.74-1.64,4.88-2.52c1.1-0.85,1.3-2.42,0.45-3.51c-0.85-1.1-2.42-1.3-3.51-0.45
		c-0.28,0.22-6.99,5.28-13.59,0.02c-7.7-6.14-16.3-2.7-19.77-0.02c-1.1,0.85-1.3,2.42-0.45,3.51c0.85,1.1,2.42,1.3,3.51,0.45
		c0.09-0.07,0.75-0.57,1.82-1.1v23.72c0,4.69,2.51,9.09,6.55,11.47l30,17.71c0.39,0.23,0.83,0.35,1.27,0.35
		c0.43,0,0.86-0.11,1.24-0.33c0.78-0.45,1.26-1.28,1.26-2.18v-25.12C120.1,99.51,119.64,98.68,118.87,98.23z"/>
	<path d="M42.77,84.32c-0.75,0-1.46,0.33-1.93,0.91c-1.39,1.68-13.6,16.68-13.6,24.55c0,8.57,6.97,15.53,15.53,15.53
		c8.56,0,15.53-6.97,15.53-15.53c0-7.87-12.21-22.87-13.6-24.55C44.22,84.66,43.51,84.32,42.77,84.32z"/>
	<path d="M42.77,75.82c1.38,0,2.51-1.12,2.51-2.51V58.39c0-1.38-1.12-2.51-2.51-2.51c-1.38,0-2.51,1.12-2.51,2.51v14.93
		C40.26,74.7,41.38,75.82,42.77,75.82z"/>
	<path d="M32.25,65.86V50.93c0-1.38-1.12-2.51-2.51-2.51s-2.51,1.12-2.51,2.51v14.93c0,1.38,1.12,2.51,2.51,2.51
		S32.25,67.24,32.25,65.86z"/>
	<path d="M55.79,48.42c-1.38,0-2.51,1.12-2.51,2.51v14.93c0,1.38,1.12,2.51,2.51,2.51c1.38,0,2.51-1.12,2.51-2.51V50.93
		C58.3,49.55,57.18,48.42,55.79,48.42z"/>
</g>
</svg>
