<?xml version="1.0" encoding="utf-8"?>
<!-- Generator: Adobe Illustrator 23.0.3, SVG Export Plug-In . SVG Version: 6.00 Build 0)  -->
<svg version="1.1" id="Layer_1" xmlns="http://www.w3.org/2000/svg" xmlns:xlink="http://www.w3.org/1999/xlink" x="0px" y="0px"
	 viewBox="0 0 72.09 76.41" style="enable-background:new 0 0 72.09 76.41;" xml:space="preserve">
<g>
	<path d="M36.05,53.41c-8.39,0-15.21-6.82-15.21-15.21S27.66,23,36.05,23s15.21,6.82,15.21,15.21S44.43,53.41,36.05,53.41z"/>
	<path d="M36.05,19.82c-0.99,0-1.79-0.8-1.79-1.79V7.09c0-0.99,0.8-1.79,1.79-1.79c0.99,0,1.79,0.8,1.79,1.79v10.93
		C37.84,19.01,37.04,19.82,36.05,19.82z"/>
	<path d="M36.05,71.12c-0.99,0-1.79-0.8-1.79-1.79V58.39c0-0.99,0.8-1.79,1.79-1.79c0.99,0,1.79,0.8,1.79,1.79v10.93
		C37.84,70.31,37.04,71.12,36.05,71.12z"/>
	<path d="M67.16,40H56.23c-0.99,0-1.79-0.8-1.79-1.79c0-0.99,0.8-1.79,1.79-1.79h10.93c0.99,0,1.79,0.8,1.79,1.79
		C68.96,39.2,68.15,40,67.16,40z"/>
	<path d="M15.86,40H4.93c-0.99,0-1.79-0.8-1.79-1.79c0-0.99,0.8-1.79,1.79-1.79h10.93c0.99,0,1.79,0.8,1.79,1.79
		C17.66,39.2,16.85,40,15.86,40z"/>
	<path d="M48.42,24.91c-0.46,0-0.92-0.18-1.27-0.53c-0.7-0.7-0.7-1.84,0-2.54l7.73-7.73c0.7-0.7,1.84-0.7,2.54,0
		c0.7,0.7,0.7,1.84,0,2.54l-7.73,7.73C49.33,24.73,48.87,24.91,48.42,24.91z"/>
	<path d="M15.95,62.76c-0.46,0-0.92-0.18-1.27-0.53c-0.7-0.7-0.7-1.84,0-2.54l7.73-7.73c0.7-0.7,1.84-0.7,2.54,0
		c0.7,0.7,0.7,1.84,0,2.54l-7.73,7.73C16.87,62.58,16.41,62.76,15.95,62.76z"/>
	<path d="M56.14,62.76c-0.46,0-0.92-0.18-1.27-0.53l-7.73-7.73c-0.7-0.7-0.7-1.84,0-2.54c0.7-0.7,1.84-0.7,2.54,0l7.73,7.73
		c0.7,0.7,0.7,1.84,0,2.54C57.06,62.58,56.6,62.76,56.14,62.76z"/>
	<path d="M23.68,24.91c-0.46,0-0.92-0.18-1.27-0.53l-7.73-7.73c-0.7-0.7-0.7-1.84,0-2.54c0.7-0.7,1.84-0.7,2.54,0l7.73,7.73
		c0.7,0.7,0.7,1.84,0,2.54C24.6,24.73,24.14,24.91,23.68,24.91z"/>
</g>
</svg>
