<svg id="Layer_1" data-name="Layer 1" xmlns="http://www.w3.org/2000/svg" viewBox="0 0 716.72 346.74"><title>Artboard 3</title><path d="M175.87,26.82H161.09a12.72,12.72,0,0,0-11.92,8.33H81.79A68.91,68.91,0,0,0,13,104V206.49a68.91,68.91,0,0,0,68.84,68.84h67.39a12.72,12.72,0,0,0,11.92,8.33h14.78v5.8h16.36V217.85H175.87v5.66H161.09a12.73,12.73,0,0,0-11.87,8.19H81.79a25.23,25.23,0,0,1-25.2-25.2V104a25.23,25.23,0,0,1,25.2-25.2h67.43A12.72,12.72,0,0,0,161.09,87h14.78v5.66h16.36V21H175.87Z" style="fill:#42b2cc"/><path d="M606.67,35.15H539.29a12.72,12.72,0,0,0-11.92-8.33H512.59V21H496.23V92.64h16.36V87h14.78a12.72,12.72,0,0,0,11.87-8.19h67.43a25.23,25.23,0,0,1,25.2,25.2V206.49a25.23,25.23,0,0,1-25.2,25.2H539.24a12.72,12.72,0,0,0-11.87-8.19H512.59v-5.66H496.23v71.62h16.36v-5.8h14.78a12.72,12.72,0,0,0,11.92-8.33h67.39a68.91,68.91,0,0,0,68.84-68.84V104A68.91,68.91,0,0,0,606.67,35.15Z" style="fill:#42b2cc"/><rect x="200.95" y="35.25" width="286.56" height="43.64" style="fill:#42b2cc"/><rect x="200.95" y="231.63" width="286.56" height="43.64" style="fill:#42b2cc"/><path d="M131.09,190.73a4.35,4.35,0,0,1-1.13-3.14v-64.7a4,4,0,0,1,1.18-3,4.36,4.36,0,0,1,3.14-1.13H158.7q11.43,0,17.77,5.56t6.34,15.76q0,10.2-6.39,15.86t-17.72,5.67H138.4v26a4.35,4.35,0,0,1-1.13,3.14,4.62,4.62,0,0,1-6.18,0Zm26.78-36.11q16.58,0,16.59-14.53,0-14.32-16.59-14.32H138.4v28.85Z" style="fill:#1a4975"/><path d="M197.59,190.32a3.65,3.65,0,0,1-1.18-2.83v-64.9a4.35,4.35,0,0,1,1.13-3.14,4.62,4.62,0,0,1,6.18,0,4.36,4.36,0,0,1,1.13,3.14v61.61h33.28a4.16,4.16,0,0,1,2.88.93,4,4,0,0,1,0,5.36,4.16,4.16,0,0,1-2.88.93h-37.6A4.19,4.19,0,0,1,197.59,190.32Z" style="fill:#1a4975"/><path d="M256.15,184.81q-7.32-7.42-7.31-21.84V122.58a4.35,4.35,0,0,1,1.13-3.14,4.08,4.08,0,0,1,3.09-1.18,4,4,0,0,1,3,1.18,4.36,4.36,0,0,1,1.13,3.14v41.1q0,10.61,5.2,16t15.3,5.36q10.09,0,15.25-5.36t5.15-16v-41.1a4.25,4.25,0,0,1,1.18-3.14,4.56,4.56,0,0,1,6.13,0,4.36,4.36,0,0,1,1.13,3.14V163q0,14.32-7.37,21.79t-21.48,7.47Q263.47,192.22,256.15,184.81Z" style="fill:#1a4975"/><path d="M391.47,119.44a4.47,4.47,0,0,1,1.08,3.14v65.21a4.28,4.28,0,0,1-1,3,3.71,3.71,0,0,1-2.88,1.13,3.39,3.39,0,0,1-2.78-1.13,4.57,4.57,0,0,1-.93-3V135.15L362.57,178q-1.44,3-4.22,3t-4.22-3l-22.46-42.34v52.13a4.41,4.41,0,0,1-1,3,3.54,3.54,0,0,1-2.83,1.13,3.7,3.7,0,0,1-2.88-1.13,4.27,4.27,0,0,1-1-3V122.58a4.35,4.35,0,0,1,1.13-3.14,4.08,4.08,0,0,1,3.09-1.18q2.57,0,4.12,3l26.17,50.17,25.86-50.17a6,6,0,0,1,1.8-2.32,4,4,0,0,1,2.32-.67A3.91,3.91,0,0,1,391.47,119.44Z" style="fill:#1a4975"/><path d="M461.52,160.29A18.18,18.18,0,0,1,465,171.62q0,9.58-6.28,14.68t-17.82,5.1h-26a4.35,4.35,0,0,1-3.14-1.13,3.94,3.94,0,0,1-1.18-3V122.89a4,4,0,0,1,1.18-3,4.36,4.36,0,0,1,3.14-1.13h24.83q11.23,0,17.41,4.94t6.18,14a16.83,16.83,0,0,1-3,10.1,18,18,0,0,1-8.5,6.28A17.3,17.3,0,0,1,461.52,160.29ZM418.92,151H438.5q8.14,0,12.31-3.3t4.17-9.58q0-12.36-16.48-12.36H418.92Zm33.74,30.24q4.07-3.14,4.07-9.84Q456.73,158,440,158H418.92v26.37H440Q448.59,184.39,452.66,181.25Z" style="fill:#1a4975"/><path d="M481.14,190.73a4.35,4.35,0,0,1-1.13-3.14v-65a4.35,4.35,0,0,1,1.13-3.14,4.62,4.62,0,0,1,6.18,0,4.36,4.36,0,0,1,1.13,3.14v65a4.36,4.36,0,0,1-1.13,3.14,4.62,4.62,0,0,1-6.18,0Z" style="fill:#1a4975"/><path d="M525.08,190.73a4.24,4.24,0,0,1-1.18-3.14V126H501.75a4.16,4.16,0,0,1-2.88-.93,4,4,0,0,1,0-5.36,4.16,4.16,0,0,1,2.88-.93H554.6a4.16,4.16,0,0,1,2.88.93,4,4,0,0,1,0,5.36,4.16,4.16,0,0,1-2.88.93H532.45v61.61a4.36,4.36,0,0,1-1.13,3.14,4.08,4.08,0,0,1-3.09,1.18A4.25,4.25,0,0,1,525.08,190.73Z" style="fill:#1a4975"/></svg>