<?xml version="1.0" encoding="utf-8"?>
<!-- Generator: Adobe Illustrator 23.0.3, SVG Export Plug-In . SVG Version: 6.00 Build 0)  -->
<svg version="1.1" id="Layer_1" xmlns="http://www.w3.org/2000/svg" xmlns:xlink="http://www.w3.org/1999/xlink" x="0px" y="0px"
	 viewBox="0 0 51.99 76.41" style="enable-background:new 0 0 51.99 76.41;" xml:space="preserve">
<path d="M7.91,44.3c-0.69,1.83-1.04,3.75-1.04,5.68c0,9.78,8.81,17.73,19.63,17.73c10.82,0,19.63-7.95,19.63-17.73
	c0-1.93-0.35-3.84-1.04-5.68c-0.29-0.79-0.65-1.56-1.07-2.3l-0.24-0.43h0.05L25.67,4.19L9.09,41.57L7.91,44.3z M18.8,61.07
	c-0.22,0.36-0.61,0.55-1,0.55c-0.22,0-0.43-0.06-0.63-0.18c-7.96-5.01-5.04-14.78-2.15-21.69c0.25-0.6,0.94-0.88,1.54-0.63
	c0.6,0.25,0.88,0.94,0.63,1.54c-4.12,9.86-3.74,15.66,1.23,18.79C18.98,59.79,19.15,60.52,18.8,61.07z"/>
</svg>
