<?xml version="1.0" encoding="utf-8"?>
<!-- Generator: Adobe Illustrator 23.0.3, SVG Export Plug-In . SVG Version: 6.00 Build 0)  -->
<svg version="1.1" id="Layer_1" xmlns="http://www.w3.org/2000/svg" xmlns:xlink="http://www.w3.org/1999/xlink" x="0px" y="0px"
	 viewBox="0 0 144 144" style="enable-background:new 0 0 144 144;" xml:space="preserve">
<g>
	<path d="M23.12,99.16c4.5,0,9.39-1.8,13.53-4.97l4.9-18.28c-0.57-0.44-1.11-0.91-1.62-1.43c-4.83,3.32-10.27,5.13-15.56,5.13
		c-2.28,0-4.44-0.35-6.43-1.02L13.49,95.2C15.72,97.77,19.09,99.16,23.12,99.16z"/>
	<path d="M24.37,73.99c4.5,0,9.39-1.8,13.53-4.97l4.9-18.28c-0.57-0.44-1.11-0.91-1.62-1.42c-4.83,3.32-10.27,5.13-15.56,5.13
		c-2.28,0-4.44-0.35-6.43-1.02l-4.45,16.61C16.97,72.6,20.34,73.99,24.37,73.99z"/>
	<path d="M25.62,48.82c4.5,0,9.39-1.8,13.53-4.97l6.48-24.18H22.74l-6.75,25.2C18.22,47.43,21.59,48.82,25.62,48.82z"/>
	<path d="M54.33,48.82c4.5,0,9.39-1.8,13.53-4.97l6.48-24.18H51.45l-6.75,25.2C46.93,47.43,50.3,48.82,54.33,48.82z"/>
	<path d="M83.04,48.82c4.5,0,9.39-1.8,13.53-4.97l6.48-24.18H80.16l-6.75,25.2C75.63,47.43,79.01,48.82,83.04,48.82z"/>
	<path d="M69.89,49.32c-4.83,3.32-10.27,5.13-15.56,5.13c-2.28,0-4.44-0.35-6.43-1.02l-4.45,16.61c2.23,2.56,5.6,3.96,9.63,3.96
		c4.5,0,9.39-1.8,13.53-4.97l4.9-18.28C70.94,50.3,70.4,49.83,69.89,49.32z"/>
	<path d="M46.65,78.6L42.2,95.2c2.23,2.56,5.6,3.96,9.63,3.96c4.5,0,9.39-1.8,13.53-4.97l4.9-18.28c-0.57-0.44-1.11-0.91-1.62-1.43
		c-4.83,3.32-10.27,5.13-15.56,5.13C50.8,79.61,48.64,79.26,46.65,78.6z"/>
	<path d="M80.54,99.16c4.5,0,9.39-1.8,13.53-4.97l4.9-18.28c-0.57-0.44-1.11-0.91-1.62-1.43c-4.83,3.32-10.27,5.13-15.56,5.13
		c-2.28,0-4.44-0.35-6.43-1.02L70.91,95.2C73.14,97.77,76.51,99.16,80.54,99.16z"/>
	<path d="M98.6,49.32c-4.83,3.32-10.27,5.13-15.56,5.13c-2.28,0-4.44-0.35-6.43-1.02l-4.45,16.61c2.23,2.56,5.6,3.96,9.63,3.96
		c4.5,0,9.39-1.8,13.53-4.97l4.9-18.28C99.65,50.3,99.11,49.83,98.6,49.32z"/>
	<path d="M102.12,44.86c2.23,2.56,5.6,3.96,9.63,3.96c4.5,0,9.39-1.8,13.53-4.97l6.48-24.18h-22.89L102.12,44.86z"/>
	<path d="M111.75,54.44c-2.28,0-4.44-0.35-6.43-1.02l-4.45,16.61c2.23,2.56,5.6,3.96,9.63,3.96c4.5,0,9.39-1.8,13.53-4.97l5.8-21.66
		c-0.09,0.1-0.19,0.2-0.3,0.29C124.19,52.03,117.87,54.44,111.75,54.44z"/>
	<path d="M23.12,104.79c-2.28,0-4.44-0.35-6.43-1.02l-4.45,16.61c2.23,2.56,5.6,3.96,9.63,3.96c4.5,0,9.39-1.8,13.53-4.97l4.9-18.28
		c-0.57-0.44-1.11-0.91-1.62-1.43C33.85,102.98,28.41,104.79,23.12,104.79z"/>
	<path d="M110.5,79.61c-2.28,0-4.44-0.35-6.43-1.02L99.62,95.2c2.23,2.56,5.6,3.96,9.63,3.96c4.5,0,9.39-1.8,13.53-4.97l5.8-21.66
		c-0.09,0.1-0.19,0.2-0.3,0.29C122.94,77.2,116.62,79.61,110.5,79.61z"/>
	<path d="M51.83,104.79c-2.28,0-4.44-0.35-6.43-1.02l-4.45,16.61c2.23,2.56,5.6,3.96,9.63,3.96c4.5,0,9.39-1.8,13.53-4.97l4.9-18.28
		c-0.57-0.44-1.11-0.91-1.62-1.43C62.56,102.98,57.12,104.79,51.83,104.79z"/>
	<path d="M109.25,104.79c-2.28,0-4.44-0.35-6.43-1.02l-4.45,16.61c2.23,2.56,5.6,3.96,9.63,3.96c4.5,0,9.39-1.8,13.53-4.97
		l5.8-21.66c-0.09,0.1-0.19,0.2-0.3,0.29C121.69,102.37,115.37,104.79,109.25,104.79z"/>
	<path d="M80.54,104.79c-2.28,0-4.44-0.35-6.43-1.02l-4.45,16.61c2.23,2.56,5.6,3.96,9.63,3.96c4.5,0,9.39-1.8,13.53-4.97l4.9-18.28
		c-0.57-0.44-1.11-0.91-1.62-1.43C91.27,102.98,85.83,104.79,80.54,104.79z"/>
</g>
</svg>
