<?xml version="1.0" encoding="utf-8"?>
<!-- Generator: Adobe Illustrator 23.0.3, SVG Export Plug-In . SVG Version: 6.00 Build 0)  -->
<svg version="1.1" id="Layer_1" xmlns="http://www.w3.org/2000/svg" xmlns:xlink="http://www.w3.org/1999/xlink" x="0px" y="0px"
	 viewBox="0 0 144 144" style="enable-background:new 0 0 144 144;" xml:space="preserve">
<g>
	<path d="M32.68,52.88c-0.59-0.71-1.65-0.81-2.37-0.22L11.64,68.11c-0.72,0.59-0.81,1.65-0.22,2.37l1.19,1.44
		c0.59,0.72,1.65,0.82,2.37,0.22l5.82-4.82l1.74-1.44l11.82-9.78c0.33-0.27,0.37-0.76,0.1-1.08L32.68,52.88z"/>
	<path d="M51.76,35.85c-0.26-0.31-0.71-0.35-1.02-0.1L34.29,49.36l0,0l3.34,4.02l0,0l16.44-13.61c0.31-0.26,0.35-0.72,0.1-1.03
		L51.76,35.85z"/>
	<path d="M55.85,125H88c0.73,0,1.33-0.59,1.33-1.33V75.86c0-0.77-0.62-1.4-1.4-1.4H55.96c-0.82,0-1.48,0.66-1.48,1.48v47.69
		C54.48,124.39,55.09,125,55.85,125z M73.07,78.53c0-0.96,0.78-1.74,1.74-1.74h10.45c0.96,0,1.74,0.78,1.74,1.74v18.3
		c0,0.96-0.78,1.74-1.74,1.74H74.81c-0.96,0-1.74-0.78-1.74-1.74V78.53z M73.07,102.64c0-0.96,0.78-1.74,1.74-1.74h10.45
		c0.96,0,1.74,0.78,1.74,1.74v18.3c0,0.96-0.78,1.74-1.74,1.74H74.81c-0.96,0-1.74-0.78-1.74-1.74V102.64z M56.8,78.53
		c0-0.96,0.78-1.74,1.74-1.74H69c0.96,0,1.74,0.78,1.74,1.74v18.3c0,0.96-0.78,1.74-1.74,1.74H58.55c-0.96,0-1.74-0.78-1.74-1.74
		V78.53z M56.8,102.64c0-0.96,0.78-1.74,1.74-1.74H69c0.96,0,1.74,0.78,1.74,1.74v18.3c0,0.96-0.78,1.74-1.74,1.74H58.55
		c-0.96,0-1.74-0.78-1.74-1.74V102.64z"/>
	<path d="M58.2,40.88l-19.68,16.3L25.05,68.33c-0.49,0.4-0.77,1-0.77,1.63v53.77c0,0.7,0.57,1.27,1.27,1.27h24.21
		c0.69,0,1.25-0.56,1.25-1.25V72.72c0-0.96,0.78-1.74,1.74-1.74h38.33c0.96,0,1.74,0.78,1.74,1.74v50.95c0,0.73,0.59,1.33,1.33,1.33
		h23.71c0.93,0,1.68-0.75,1.68-1.68v-53.5c0-0.55-0.24-1.06-0.66-1.41L72.96,30.4c-0.61-0.51-1.49-0.51-2.1,0L58.2,40.88z
		 M47.69,55.71l-2.87,11.95c-0.08,0.35-0.44,0.57-0.79,0.48L42,67.66c-0.4-0.1-0.65-0.5-0.55-0.9L44.3,54.9
		c0.07-0.28,0.35-0.45,0.62-0.38l2.38,0.57C47.59,55.16,47.76,55.44,47.69,55.71z M57.35,62.49l-7.78-9.45
		c-0.19-0.23-0.16-0.57,0.07-0.75l1.86-1.53c0.23-0.19,0.57-0.16,0.76,0.07l7.78,9.45c0.24,0.29,0.2,0.72-0.09,0.96l-1.63,1.34
		C58.02,62.82,57.59,62.78,57.35,62.49z M55.03,46.28l12.2-0.52c0.35-0.01,0.64,0.26,0.66,0.61l0.09,2.23
		c0.01,0.34-0.25,0.63-0.59,0.64L55.2,49.76c-0.35,0.01-0.65-0.26-0.67-0.61l-0.09-2.23C54.43,46.58,54.69,46.3,55.03,46.28z"/>
	<path d="M56.98,36.69c0.18,0.22,0.51,0.25,0.73,0.07l13.08-10.83c0.32-0.27,0.72-0.4,1.11-0.4s0.79,0.13,1.11,0.4l48.26,39.95
		l1.74,1.44l6.18,5.11c0.52,0.43,1.28,0.36,1.71-0.16l1.78-2.16c0.43-0.52,0.36-1.28-0.16-1.71L73.57,19.6
		C73.1,19.22,72.51,19,71.9,19s-1.2,0.21-1.67,0.6L54.37,32.74c-0.22,0.18-0.25,0.5-0.07,0.71L56.98,36.69z"/>
</g>
</svg>
